<?xml version="1.0" encoding="UTF-8"?>
<svg width="100px" height="61px" viewBox="0 0 100 61" version="1.1" xmlns="http://www.w3.org/2000/svg" xmlns:xlink="http://www.w3.org/1999/xlink">
    <!-- Generator: Sketch 58 (84663) - https://sketch.com -->
    <title>图形</title>
    <desc>Created with Sketch.</desc>
    <g id="写白卡" stroke="none" stroke-width="1" fill="none" fill-rule="evenodd">
        <g id="查询结果-激活成功" transform="translate(-140.000000, -125.000000)">
            <g id="图形" transform="translate(140.000000, 125.000000)">
                <g id="点" fill="#BDC4EF">
                    <ellipse id="Oval-18" opacity="0.59891183" cx="46.6187721" cy="0.616832747" rx="1" ry="1"></ellipse>
                    <ellipse id="Oval-18" opacity="0.595127737" cx="58.6187721" cy="8.61683275" rx="1" ry="1"></ellipse>
                    <ellipse id="Oval-11" opacity="0.49718067" cx="8.25029465" cy="9.62945456" rx="1.44380156" ry="1.43927641"></ellipse>
                    <ellipse id="Oval-11" opacity="0.70156715" cx="12.684828" cy="2.12465613" rx="1" ry="1"></ellipse>
                    <ellipse id="Oval-11" opacity="0.70156715" cx="8.5596807" cy="57.4579181" rx="1.54693025" ry="1.54208187"></ellipse>
                    <path d="M0.928158149,51.8036179 C1.44076574,51.8036179 1.8563163,51.3893698 1.8563163,50.8783688 C1.8563163,50.3673678 1.44076574,49.9531197 0.928158149,49.9531197 C0.415550558,49.9531197 2.27373675e-13,50.3673678 2.27373675e-13,50.8783688 C2.27373675e-13,51.3893698 0.415550558,51.8036179 0.928158149,51.8036179 Z" id="Oval-11" opacity="0.212278451"></path>
                    <ellipse id="Oval-11" opacity="0.298781622" cx="72.7497589" cy="1.91904522" rx="1.54693025" ry="1.54208187"></ellipse>
                    <ellipse id="Oval-11" opacity="0.50499907" cx="78.9374799" cy="8.29298361" rx="1" ry="1"></ellipse>
                    <ellipse id="Oval-11" opacity="0.301850818" cx="98.5561984" cy="34.8537891" rx="1.44380156" ry="1.43927641"></ellipse>
                </g>
                <g id="Lines" transform="translate(38.000000, 0.000000)" stroke="#9BA6E7" stroke-linecap="round">
                    <path d="M5.88235294,8 L3.11432499,5.88819721 M1.54149357,4.68824192 L0,3.51219512" id="Line" opacity="0.801438538"></path>
                    <path d="M9.03361345,2.14634146 L9.66386555,4.29268293" id="Line" opacity="0.702807114"></path>
                    <path d="M16.8067227,0 L16.1764706,6.43902439" id="Line"></path>
                    <path d="M25,4.09756098 L22.2689076,7.2195122" id="Line" opacity="0.696713489"></path>
                </g>
                <g id="Phone-1" transform="translate(28.000000, 37.000000) rotate(-360.000000) translate(-28.000000, -37.000000) translate(5.000000, 14.000000)">
                    <path d="M43.8688247,14.2055589 C43.8688247,14.2055589 44.6244135,10.283111 43.3014351,8.32616212 C41.9784566,6.36921322 35.0224614,3.36936711 35.0224614,3.36936711" id="Path-5" stroke="#7578A0" stroke-width="1.2" stroke-linecap="round" stroke-linejoin="round" transform="translate(39.553052, 8.787463) rotate(76.000000) translate(-39.553052, -8.787463) "></path>
                    <path d="M11.0680843,13.6986036 C11.0680843,7.06992241 16.3211808,0.602833338 22.9171257,0.00231530258 C22.9171257,0.00231530258 17.1898584,-6.80571728e-13 23.3116325,-6.82121026e-13 C29.4334066,-6.8335252e-13 23.7061393,0.00231530258 23.7061393,0.00231530258 C30.2501842,0.937885264 35.5551807,7.07764007 35.5551807,13.6986036 L35.5551807,32.5259684 C35.5551807,39.1546496 30.2418455,45.355527 23.6344272,45.7993279 C23.6344272,45.7993279 29.4334066,45.8004934 23.3116325,45.8004934 C17.1898584,45.8004934 22.9709088,45.7991957 22.9709088,45.7991957 C16.3971603,45.0972759 11.0680843,39.146932 11.0680843,32.5259684 L11.0680843,13.6986036 Z" id="Rectangle-9" fill="#F2F4FD"></path>
                    <path d="M35.5551807,32.010663 L35.5551807,42.0961816 C35.5551807,43.43938 34.4793432,44.7312538 33.1514698,44.9536624 C33.1514698,44.9536624 29.4334066,45.8004934 23.3116325,45.8004934 C22.6091831,45.8004934 21.9383825,45.7893435 21.3012165,45.7696024 M18.6959587,45.633519 C15.3734368,45.3867828 13.4674865,44.9604593 13.4674865,44.9604593 C12.1423332,44.7217608 11.0680843,43.4399697 11.0680843,42.0968332 L11.0680843,29.4859223 L11.0680843,35.239447 M11.0680843,30.0785995 L11.0680843,27.3865275 M11.0680843,24.3715272 L11.0680843,4.12833839 C11.0680843,2.78516872 12.1281238,1.42939937 13.4438353,1.13499983 C13.4438353,1.13499983 17.1898584,-6.80571728e-13 23.3116325,-6.82121026e-13 C29.4334066,-6.8335252e-13 33.1794297,1.13499983 33.1794297,1.13499983 C34.4915208,1.4450054 35.5551807,2.78552702 35.5551807,4.12897465 L35.5551807,28.8394553" id="Rectangle-9" stroke="#7578A0" stroke-width="0.8" stroke-linecap="round" stroke-linejoin="round"></path>
                    <path d="M19.580677,4.99641746 L32.275184,4.99641746 C32.8152031,4.99641746 33.2529751,5.4320719 33.2529751,5.96939388 L33.2529751,37.7492589 C33.2529751,38.286619 32.8145247,38.7222353 32.2771545,38.7222353 L14.3461105,38.7222353 C13.8071797,38.7222353 13.3702899,38.2865809 13.3702899,37.7492589 L13.3702899,5.96939388 L13.3702899,5.96939388 C13.3702899,5.43203384 13.8073041,4.99641746 14.3456205,4.99641746 L16.9053574,4.99641746" id="Rectangle-9" stroke="#7578A0" stroke-width="0.8" fill="#FFFFFF" stroke-linecap="round" stroke-linejoin="round"></path>
                    <path d="M19.0776592,11.9772934 C19.0776592,11.9772934 19.1645067,11.10378 19.868865,10.9573238 C20.5732232,10.8108676 20.9613281,11.6598751 20.9613281,11.6598751" id="Path-8" stroke="#7578A0" stroke-width="0.8" stroke-linecap="round" stroke-linejoin="round" transform="translate(20.019494, 11.456535) rotate(7.000000) translate(-20.019494, -11.456535) "></path>
                    <path d="M25.5656934,11.9772934 C25.5656934,11.9772934 25.6525408,11.10378 26.3568991,10.9573238 C27.0612573,10.8108676 27.4493623,11.6598751 27.4493623,11.6598751" id="Path-8" stroke="#7578A0" stroke-width="0.8" stroke-linecap="round" stroke-linejoin="round" transform="translate(26.507528, 11.456535) rotate(7.000000) translate(-26.507528, -11.456535) "></path>
                    <path d="M20.2769069,2.78405521 C20.2769069,2.51120968 20.4929218,2.26280824 20.7735955,2.23092434 C20.7735955,2.23092434 21.7942697,2.08184061 23.3116325,2.08184061 C24.8289953,2.08184061 25.8496695,2.23092434 25.8496695,2.23092434 C26.123983,2.26356455 26.3463581,2.51757351 26.3463581,2.78405521 L26.3463581,2.62873038 C26.3463581,2.90157591 26.1303431,3.09554448 25.8496695,3.06366058 C25.8496695,3.06366058 24.8289953,2.91457685 23.3116325,2.91457685 C21.7942697,2.91457685 20.7735955,3.06366058 20.7735955,3.06366058 C20.499282,3.09630079 20.2769069,2.89521208 20.2769069,2.62873038 L20.2769069,2.78405521 Z" id="Rectangle-10" fill="#D5DBFA"></path>
                    <path d="M3.92688926,28.005164 C3.92688926,28.005164 7.01301745,25.9422174 7.02014892,22.3513733 C7.02728039,18.7605292 4.61192242,12.7566853 4.61192242,12.7566853" id="Path-5" stroke="#7578A0" stroke-width="1.2" stroke-linecap="round" stroke-linejoin="round" transform="translate(5.473530, 20.380925) rotate(-148.000000) translate(-5.473530, -20.380925) "></path>
                    <ellipse id="Oval" fill="#D5DBFA" cx="23.4162782" cy="42.2613644" rx="1.88362281" ry="1.87365655"></ellipse>
                    <path d="M21.5979325,17.0365579 C21.3319632,17.6125804 22.1545997,18.0550067 23.1853801,17.9341328 C24.2161604,17.8132589 24.981367,16.8540499 24.7302775,16.4262271 C24.4791881,15.9984043 21.8639018,16.4605354 21.5979325,17.0365579 Z" id="Path-10" fill="#7578A0" transform="translate(23.162892, 17.106592) rotate(19.000000) translate(-23.162892, -17.106592) "></path>
                    <path d="M22.9433962,29.0769231 L21.2830189,27.3846154 C20.9811321,27.2307692 20.5283019,27.2307692 20.2264151,27.3846154 C19.9245283,27.6923077 19.9245283,28.3076923 20.2264151,28.6153846 L22.3396226,30.7692308 C22.6415094,31.0769231 23.0943396,31.0769231 23.3962264,30.7692308 L27.7735849,26.3076923 C28.0754717,26 28.0754717,25.5384615 27.7735849,25.2307692 C27.4716981,24.9230769 27.0188679,24.9230769 26.7169811,25.2307692 L22.9433962,29.0769231 Z" id="路径" fill="#F5A623" fill-rule="nonzero"></path>
                </g>
                <g id="2-2" transform="translate(69.000000, 35.500000) rotate(-90.000000) translate(-69.000000, -35.500000) translate(49.500000, 16.500000)">
                    <path d="M29.8291203,14.1708797 C29.8291203,14.1708797 32.9152485,12.107933 32.92238,8.51708892 C32.9295115,4.92624482 30.5141535,-1.07759901 30.5141535,-1.07759901" id="Path-5" stroke="#7578A0" stroke-width="1.2" stroke-linecap="round" stroke-linejoin="round" transform="translate(31.375761, 6.546640) scale(1, -1) rotate(126.000000) translate(-31.375761, -6.546640) "></path>
                    <path d="M18.8976772,37.9486862 C18.8976772,37.9486862 19.653266,34.0262383 18.3302875,32.0692894 C17.0073091,30.1123405 10.0513138,27.1124944 10.0513138,27.1124944" id="Path-5" stroke="#7578A0" stroke-width="1.2" stroke-linecap="round" stroke-linejoin="round" transform="translate(14.581904, 32.530590) scale(1, -1) translate(-14.581904, -32.530590) "></path>
                    <path d="M2.5,10 C1.67157288,10 1,10.6715729 1,11.5 L1,28.5 C1,29.3284271 1.67157288,30 2.5,30 L26.3958545,30 C26.7936568,30 27.1751681,29.8419825 27.456469,29.5607059 L33.5606144,23.4570866 C33.841947,23.1757783 34,22.7942279 34,22.3963807 L34,11.5 C34,10.6715729 33.3284271,10 32.5,10 L2.5,10 Z" id="矩形备份-15" stroke="#7578A0" fill="#F7F9FE"></path>
                    <rect id="矩形" fill="#F7F9FE" x="23.5" y="28.5" width="1" height="2"></rect>
                    <rect id="矩形备份" fill="#F7F9FE" x="23.5" y="9.5" width="1" height="2"></rect>
                    <rect id="矩形备份-2" fill="#F7F9FE" x="0.5" y="19.5" width="2" height="1"></rect>
                    <g id="SIMqiaguanli" transform="translate(12.000000, 19.500000) rotate(90.000000) translate(-12.000000, -19.500000) translate(5.500000, 11.500000)" fill="#F6AE39" fill-rule="nonzero">
                        <path d="M7.97445234,10.3176891 C8.59947286,10.3176891 9.1079047,10.8957433 9.1079047,11.6071182 L9.1079047,15.4704308 L9.1070281,15.4704308 C9.1070281,15.5569897 9.09738543,15.6425537 9.08423633,15.7241379 L3.46255805,15.7241379 C3.44724949,15.640707 3.43990207,15.5556476 3.44059198,15.4704308 L3.44059198,11.6071182 C3.44059198,10.8957433 3.94819812,10.3176891 4.57321864,10.3176891 L7.97445234,10.3176891 Z M2.98568405,11.8638101 L2.98568405,15.723145 L2.24144502,15.723145 C1.71904828,15.7239353 1.21780852,15.4889582 0.848171349,15.0699878 C0.478534178,14.6510173 0.270833333,14.0824352 0.270833333,13.4895255 L0.270833333,11.8638101 L2.98568405,11.8638101 Z M12.7291667,11.9941459 L12.7291667,13.4895255 C12.728199,14.7234402 11.8466019,15.723143 10.7594316,15.723143 L9.78902805,15.723143 L9.78902805,11.9941459 L12.7291667,11.9941459 Z M12.7274135,4.39785646 L12.7274135,11.4797672 L9.78639823,11.4797672 L9.78639823,11.2190955 C9.78546109,10.389844 9.20690338,9.70989846 8.47674794,9.67993906 L8.53460397,9.67993906 L8.53460397,6.31508629 C9.2401919,6.25330211 9.78529282,5.58610042 9.78639823,4.78289431 L9.78639823,4.39785646 L12.7274135,4.39785646 Z M2.98568405,4.52122776 L2.98568405,4.78289431 C2.98568155,5.63304366 3.59187607,6.32284165 4.34091789,6.32503559 L4.34091789,9.67595934 C3.59213491,9.67978932 2.98664076,10.3692349 2.98568405,11.2190955 L2.98568405,11.3494314 L0.270833333,11.3494314 L0.270833333,4.52122776 L2.98568405,4.52122776 Z M8.08928781,6.32702545 L8.08928781,9.67695427 L4.79412351,9.67695427 L4.79412351,6.32702545 L8.08928781,6.32702545 Z M9.08511293,0.275862069 C9.09913864,0.358441247 9.1079047,0.445000144 9.1079047,0.534543831 L9.1079047,4.3958666 C9.1079047,5.10823638 8.59947286,5.68330583 7.97445234,5.68330583 L4.57409525,5.68330583 C4.27341347,5.68330583 3.98507238,5.54760224 3.77262276,5.30610318 C3.56017313,5.06460412 3.44105404,4.73713361 3.44151949,4.3958666 L3.44151949,0.534543831 L3.44064288,0.534543831 C3.44064288,0.444005214 3.44765574,0.358441247 3.46343466,0.275862069 L9.08511293,0.275862069 Z M2.98656065,0.276856777 L2.98656065,4.0058541 L0.27170994,4.0058541 L0.27170994,2.51246438 C0.27170994,1.91937202 0.479355281,1.3505857 0.848941881,0.931299377 C1.21852848,0.512013052 1.71976354,0.27659305 2.24232163,0.276856777 L2.98656065,0.276856777 Z M10.7576784,0.276856777 C11.2800754,0.276592661 11.7811305,0.512076099 12.1504388,0.931419768 C12.5197471,1.35076344 12.7270023,1.91955506 12.7265376,2.51246438 L12.7265376,3.88148786 L9.78639823,3.88148786 L9.78639823,0.276856777 L10.7576784,0.276856777 Z" id="形状"></path>
                    </g>
                </g>
            </g>
        </g>
    </g>
</svg>