<!-- <?xml version="1.0" encoding="UTF-8"?> -->
<svg width="71px" height="55px" viewBox="0 0 71 55" version="1.1" xmlns="http://www.w3.org/2000/svg" xmlns:xlink="http://www.w3.org/1999/xlink">
    <!-- Generator: Sketch 58 (84663) - https://sketch.com -->
    <title>图形</title>
    <desc>Created with Sketch.</desc>
    <g id="写白卡" stroke="none" stroke-width="1" fill="none" fill-rule="evenodd">
        <g id="查询结果-订单取消" transform="translate(-151.000000, -127.000000)">
            <g id="图形" transform="translate(152.000000, 127.000000)">
                <path d="M3,15 L3,15.4075267 C3,17.6213183 3.64465732,21.0756541 4.6299052,23.0575031 C4.6299052,23.0575031 5.47949805,28.050964 17.3944925,37.6134173 C29.3094869,47.1758707 37.6250487,49.9479402 37.6250487,49.9479402 C41.6617916,51.723509 48.4928955,52.8446343 52.885788,52.3796752 C52.885788,52.3796752 55.6221135,52.318241 60.885369,51.1663251 C66.1486244,50.0144091 63.3832554,50.552557 63.3832554,50.552557 C66.4852978,49.4385562 69,45.8472355 69,45.3976628 L69,45.3976628 L67.4672516,46.5895125 L62.8812981,47.969466 L56.7986256,49.3746275" id="Path-4" fill="#D5DBFA" opacity="0.702729725"></path>
                <path d="M38.4715932,25 C38.4715932,25 42.7404684,20.2335621 41.88724,18.1304457 C41.0340116,16.0273293 32,16 32,16" id="Path-5" stroke="#7578A0" stroke-width="2" stroke-linecap="round" stroke-linejoin="round"></path>
                <path d="M15.6316862,12.2124578 C8.74685994,12.7714295 10.0597435,12.9614247 10.0597435,12.9614247 C5.77276982,13.9952217 3.86431468,18.0484496 6.12359718,21.8440443 C6.12359718,21.8440443 6.64462344,25.705832 17.846011,35.1628846 C29.0473985,44.6199372 38.0425357,47.842995 38.0425357,47.842995 C42.0603636,49.6715936 48.8919669,50.8473257 53.2777346,50.3514407 C53.2777346,50.3514407 53.5745317,50.5961037 59.7766003,49.2849752 C65.978669,47.9738467 62.6543825,48.5841865 62.6543825,48.5841865 C66.7836184,47.0525663 66.9633806,44.1359538 63.0837278,42.0172695 C63.0837278,42.0172695 49.5951159,35.2314423 41.5699047,28.0986898 C33.5446935,20.9659372 33.899436,19.4569312 33.899436,19.4569312 C31.6557018,15.6685129 26.2683919,12.2592312 21.8644037,12.0516397 C21.8644037,12.0516397 22.5165124,11.6534862 15.6316862,12.2124578 Z" id="Path-3" fill="#F2F4FD"></path>
                <path d="M33.8113798,45.6774841 C34.2183742,45.8979905 34.6183137,46.111665 35.0101501,46.3183669 M39.1123083,48.3860436 C42.0153783,49.7819521 43.8812568,50.5380579 43.8812568,50.5380579 C44.6189402,50.8494115 45.8672664,51.0531534 46.6659119,50.9877847 C46.6659119,50.9877847 53.3861998,50.5445306 59.5223004,49.234763 C65.658401,47.9249954 68.4396098,46.4589317 68.4396098,46.4589317 C69.1695885,46.1296659 69.1890403,45.5592733 68.4824764,45.1809428 C68.4824764,45.1809428 56.6405632,38.9685373 47.7414731,32.8473489 M44.8179919,30.7543382 C43.5886739,29.8330912 42.4680781,28.930928 41.5092595,28.0704689 C33.5694082,20.9451202 30.5339694,13.8794261 30.5339694,13.8794261 C30.1843622,13.1646794 29.2542574,12.5092479 28.4580338,12.4261646 C28.4580338,12.4261646 22.6585279,11.6423355 15.8469319,12.2007269 C13.9443112,12.3566973 12.1566229,12.60538 10.5681036,12.8828132 M6.2072822,13.8059949 C4.62743431,14.2013442 3.69685158,14.5058226 3.69685158,14.5058226 C3.12121282,14.6786909 2.84346326,15.2641221 3.09032929,15.8099627 C3.09032929,15.8099627 6.95545973,25.6800949 18.0377041,35.1273311 C21.5845211,38.1508719 25.508375,40.8173032 29.204632,43.0455094" id="Path-3" stroke="#7578A0" stroke-linecap="round" stroke-linejoin="round"></path>
                <path d="M13.6121422,27.0715453 C15.4309246,29.0631875 17.6596696,31.2418334 20.3350217,33.4378079 C29.6903362,41.1168093 37.4719815,44.7620717 37.4719815,44.7620717 C37.8363367,44.9416603 38.458352,45.0410074 38.8621957,44.9838417 L57.673927,42.3209666 C58.0773659,42.2638583 58.1108473,42.0661435 57.7497273,41.8771414 C57.7497273,41.8771414 45.4505404,35.6353432 38.5428488,28.9221097 C31.6351572,22.2088763 28.6742415,16.5825944 28.6742415,16.5825944 C28.4746533,16.2301435 27.9823928,15.9705547 27.575981,16.002689 L7.46139151,17.5931158 L7.46139151,17.5931158 C7.05442714,17.6252938 6.88329456,17.9399253 7.0843938,18.2917007 C7.0843938,18.2917007 8.6846434,21.3580466 12.2952649,25.581531" id="Path-3" stroke="#7578A0" fill="#FFFFFF" stroke-linecap="round" stroke-linejoin="round"></path>
                <path d="M13.5281795,14.5990124 C13.5282566,14.2974563 13.7782292,14.0182562 14.068503,13.9814966 C14.068503,13.9814966 15.4061172,13.7697179 17.2838429,13.7692361 C19.1615686,13.7687544 20.4990747,13.9798467 20.4990747,13.9798467 C20.7973898,14.0191821 21.0391619,14.2863988 21.0390825,14.5970853 L21.0391575,14.3037969 C21.0390804,14.605353 20.7891233,14.8240146 20.4988659,14.7967288 C20.4988659,14.7967288 19.1613461,14.6393811 17.2836203,14.6398629 C15.4058946,14.6403447 14.0682941,14.7983787 14.0682941,14.7983787 C13.7699614,14.8278491 13.5281751,14.6164106 13.5282545,14.305724 L13.5281795,14.5990124 Z" id="Rectangle-2" fill="#D5DBFA" transform="translate(17.283668, 14.310487) rotate(-4.000000) translate(-17.283668, -14.310487) "></path>
                <path d="M56.2211485,46.0168599 C55.1074531,45.1957475 53.2101825,44.7893935 51.9834761,45.1092429 C50.7567696,45.4290923 50.6651561,46.2867512 51.7788515,47.0248776 C52.8925469,47.7630041 54.7898175,48.1693581 56.0165239,47.9324947 C57.2432304,47.6956313 57.3348439,46.8379724 56.2211485,46.0168599 Z" id="Oval-2" fill="#D5DBFA"></path>
                <path d="M3,15 L3.02768036,16.8609463 C3.03374066,17.2683796 3.07384456,17.9259543 3.15057646,18.3254381 C3.15057646,18.3254381 3.10111488,23.117676 14.676114,34.9307384 C26.2511131,46.7438008 43.656344,53.5521709 43.656344,53.5521709 C44.3986708,53.8604646 45.6486958,54.0557975 46.4473405,53.9857675 C46.4473405,53.9857675 51.5792941,53.5773005 56.3640281,52.8841969 M59.7033267,52.331891 C60.1223935,52.2514978 60.5255457,52.1686736 60.9076998,52.0835323 C66.1564712,50.9141423 68.0097939,49.8705323 68.0097939,49.8705323 C68.5566697,49.617722 69,48.9185525 69,48.3076145 L69,46.2273622" id="Path-4" stroke="#7578A0" stroke-linecap="round" stroke-linejoin="round"></path>
                <path d="M13,33 C13,33 2.65784328,32.6676528 0.504430428,31.1469454 C-1.64898242,29.6262379 3.78917199,25 3.78917199,25" id="Path-6" stroke="#7578A0" stroke-width="2" stroke-linecap="round" stroke-linejoin="round"></path>
                <path d="M23.7929348,26.4788167 C23.4564426,26.2225721 23.5236153,25.9614298 23.9469329,25.8949163 L26.10412,25.5559699 C26.5256629,25.4897352 26.8469925,25.7826356 26.7159439,26.1969544 C26.7159439,26.1969544 26.9834565,26.6636813 25.7004603,26.9378424 C24.4174641,27.2120036 23.7929348,26.4788167 23.7929348,26.4788167 Z" id="Path-7" fill="#7578A0" transform="translate(25.030341, 26.212485) scale(1, -1) rotate(8.000000) translate(-25.030341, -26.212485) "></path>
                <path d="M17.5519568,22.6533001 C17.5519568,22.6533001 17.5618964,21.7641524 18.4645848,21.6024859 C19.3672731,21.4408194 19.9661085,22.3033314 19.9661085,22.3033314" id="Path-8" stroke="#7578A0" stroke-linecap="round" stroke-linejoin="round" transform="translate(18.759033, 22.115133) scale(1, -1) rotate(7.000000) translate(-18.759033, -22.115133) "></path>
                <path d="M24.257723,21.8463082 C24.257723,21.8463082 24.2681712,20.9571101 25.1709069,20.7949168 C26.0736427,20.6327234 26.6719543,21.4949348 26.6719543,21.4949348" id="Path-8" stroke="#7578A0" stroke-linecap="round" stroke-linejoin="round" transform="translate(25.464839, 21.307773) scale(1, -1) rotate(-2.000000) translate(-25.464839, -21.307773) "></path>
                <circle id="Oval-11" fill="#9BA6E7" opacity="0.400000006" cx="41.5" cy="1.5" r="1.5"></circle>
                <circle id="Oval-11" fill="#9BA6E7" opacity="0.6" cx="44" cy="9" r="1"></circle>
                <circle id="Oval-11" fill="#9BA6E7" opacity="0.659165112" cx="54.5" cy="25.5" r="1.5"></circle>
                <circle id="Oval-11" fill="#9BA6E7" opacity="0.5" cx="7.5" cy="42.5" r="1.5"></circle>
                <circle id="Oval-11" fill="#9BA6E7" opacity="0.35389459" cx="8" cy="49" r="1"></circle>
                <circle id="Oval-11" fill="#9BA6E7" opacity="0.667910448" cx="17" cy="51" r="1"></circle>
                <g id="编组" transform="translate(34.733956, 35.357212) scale(-1, 1) rotate(50.000000) translate(-34.733956, -35.357212) translate(33.233956, 29.357212)" fill="#F5A623" fill-rule="nonzero">
                    <circle id="Oval" cx="1.22899754" cy="10.9589979" r="1"></circle>
                    <rect id="Rectangle" x="0.378757815" y="0.557625267" width="2" height="8" rx="1"></rect>
                </g>
            </g>
        </g>
    </g>
</svg>