<?xml version="1.0" encoding="UTF-8"?>
<svg width="267px" height="187px" viewBox="0 0 267 187" version="1.1" xmlns="http://www.w3.org/2000/svg" xmlns:xlink="http://www.w3.org/1999/xlink">
    <!-- Generator: Sketch 58 (84663) - https://sketch.com -->
    <title>编组</title>
    <desc>Created with Sketch.</desc>
    <g id="写白卡" stroke="none" stroke-width="1" fill="none" fill-rule="evenodd">
        <g id="写卡-默认" transform="translate(-54.000000, -288.000000)">
            <g id="编组" transform="translate(55.000000, 289.000000)">
                <g id="2-2" transform="translate(158.000000, 1.000000)">
                    <rect id="矩形" stroke="#7578A0" fill="#FFFFFF" x="0" y="0" width="107" height="132" rx="6"></rect>
                    <path d="M18,23 C16.3431458,23 15,24.3431458 15,26 L15,56 C15,57.6568542 16.3431458,59 18,59 L60.2796354,59 C61.0796853,59 61.8465928,58.6804336 62.4099143,58.1123239 L73.1302788,47.3008352 C73.6874049,46.7389735 74,45.9797623 74,45.1885113 L74,26 C74,24.3431458 72.6568542,23 71,23 L18,23 Z" id="矩形备份-15" stroke="#DADADA" stroke-width="2" fill="#FFFFFF"></path>
                    <rect id="矩形" fill="#FFFFFF" x="56" y="57" width="2" height="5"></rect>
                    <rect id="矩形备份" fill="#FFFFFF" x="56" y="21" width="2" height="5"></rect>
                    <rect id="矩形备份-2" fill="#FFFFFF" x="12" y="40" width="5" height="2"></rect>
                    <g id="SIMqiaguanli" transform="translate(35.500000, 40.000000) rotate(90.000000) translate(-35.500000, -40.000000) translate(23.500000, 25.500000)" fill="#F6AE39" fill-rule="nonzero">
                        <path d="M14.7220659,18.7008115 C15.8759499,18.7008115 16.8145933,19.7485348 16.8145933,21.0379017 L16.8145933,28.0401559 L16.812975,28.0401559 C16.812975,28.1970439 16.7951731,28.3521286 16.7708978,28.5 L6.39241486,28.5 C6.3641529,28.3487815 6.35058844,28.1946112 6.35186212,28.0401559 L6.35186212,21.0379017 C6.35186212,19.7485348 7.28898114,18.7008115 8.44286518,18.7008115 L14.7220659,18.7008115 Z M5.51203209,21.5031558 L5.51203209,28.4982003 L4.13805235,28.4982003 C3.1736276,28.4996327 2.24826188,28.0737368 1.5658548,27.3143529 C0.883447714,26.5549689 0.5,25.5244138 0.5,24.4497649 L0.5,21.5031558 L5.51203209,21.5031558 Z M23.5,21.7393895 L23.5,24.4497649 C23.4982135,26.6862353 21.8706497,28.4981967 19.863566,28.4981967 L18.0720518,28.4981967 L18.0720518,21.7393895 L23.5,21.7393895 Z M23.4967633,7.97111483 L23.4967633,20.807078 L18.0671967,20.807078 L18.0671967,20.3346107 C18.0654666,18.8315922 16.9973601,17.599191 15.6493808,17.5448895 L15.756192,17.5448895 L15.756192,11.4460939 C17.0588158,11.3341101 18.065156,10.124807 18.0671967,8.66899594 L18.0671967,7.97111483 L23.4967633,7.97111483 Z M5.51203209,8.19472532 L5.51203209,8.66899594 C5.51202748,10.2098916 6.63115582,11.4601505 8.01400225,11.464127 L8.01400225,17.5376763 C6.63163369,17.5446181 5.51379832,18.7942382 5.51203209,20.3346107 L5.51203209,20.5708443 L0.5,20.5708443 L0.5,8.19472532 L5.51203209,8.19472532 Z M14.9340698,11.4677336 L14.9340698,17.5394796 L8.85068956,17.5394796 L8.85068956,11.4677336 L14.9340698,11.4677336 Z M16.7725162,0.5 C16.7984098,0.64967476 16.8145933,0.806562762 16.8145933,0.968860694 L16.8145933,7.96750821 C16.8145933,9.25867843 15.8759499,10.3009918 14.7220659,10.3009918 L8.44448354,10.3009918 C7.88937872,10.3009918 7.35705671,10.0550291 6.96484201,9.61731201 C6.57262732,9.17959496 6.35271515,8.58605466 6.35357444,7.96750821 L6.35357444,0.968860694 L6.35195609,0.968860694 C6.35195609,0.804759451 6.3649029,0.64967476 6.39403321,0.5 L16.7725162,0.5 Z M5.51365044,0.501802909 L5.51365044,7.26061055 L0.501618351,7.26061055 L0.501618351,4.5538417 C0.501618351,3.47886178 0.884963596,2.44793658 1.56727732,1.68798012 C2.24959104,0.928023658 3.17494807,0.501324904 4.1396707,0.501802909 L5.51365044,0.501802909 Z M19.8603293,0.501802907 C20.8247546,0.501324198 21.7497793,0.928137929 22.4315793,1.68819833 C23.1133792,2.44825873 23.4960042,3.47919355 23.4951464,4.5538417 L23.4951464,7.03519675 L18.0671967,7.03519675 L18.0671967,0.501802907 L19.8603293,0.501802907 Z" id="形状"></path>
                    </g>
                    <text id="芯片向上" font-family="PingFangSC-Medium, PingFang SC" font-size="13" font-weight="400" fill="#F6AE39">
                        <tspan x="42" y="115">芯片向上</tspan>
                    </text>
                </g>
                <g id="2-1">
                    <rect id="矩形" stroke="#7578A0" fill="#FFFFFF" x="0" y="0" width="129" height="185" rx="6"></rect>
                    <rect id="矩形" stroke="#9BA6E7" stroke-width="2" x="10" y="79" width="107" height="90"></rect>
                    <rect id="矩形备份-6" fill="#FFFFFF" x="5" y="87" width="118" height="73"></rect>
                    <rect id="矩形备份-5" fill="#FFFFFF" x="19" y="58" width="89" height="115"></rect>
                    <g id="卡" transform="translate(10.000000, 64.000000)">
                        <path d="M6.45073646,5.625 L8.625,3.74961655 L8.625,1 C8.625,0.654822031 8.34517797,0.375 8,0.375 L1,0.375 C0.654822031,0.375 0.375,0.654822031 0.375,1 L0.375,5 C0.375,5.34517797 0.654822031,5.625 1,5.625 L6.45073646,5.625 Z" id="矩形备份-15" stroke="#7578A0" stroke-width="0.75"></path>
                        <polygon id="三角形" fill="#7578A0" transform="translate(97.329598, 2.982749) rotate(-90.000000) translate(-97.329598, -2.982749) " points="97.3123475 2.32543894 99.9683881 3.64005946 94.6908084 3.64005946"></polygon>
                        <rect id="矩形" fill="#7578A0" x="99" y="0" width="8" height="6" rx="1"></rect>
                        <rect id="矩形备份-16" fill="#D5DBFA" x="100" y="1" width="2" height="1"></rect>
                    </g>
                    <g id="电源" transform="translate(10.000000, 12.000000)">
                        <rect id="矩形备份-12" fill="#D5DBFA" x="12" y="1" width="10" height="4" rx="2"></rect>
                        <rect id="矩形备份-13" fill="#D5DBFA" transform="translate(13.000000, 13.000000) rotate(45.000000) translate(-13.000000, -13.000000) " x="8" y="11" width="10" height="4" rx="2"></rect>
                        <rect id="矩形备份-14" fill="#D5DBFA" transform="translate(3.000000, 17.000000) rotate(90.000000) translate(-3.000000, -17.000000) " x="-2" y="15" width="10" height="4" rx="2"></rect>
                        <text id="蓝牙" opacity="0.601120722" font-family="PingFangSC-Regular, PingFang SC" font-size="5" font-weight="normal" fill="#2F2F4D">
                            <tspan x="25" y="5">蓝牙</tspan>
                        </text>
                        <text id="工作" opacity="0.601120722" font-family="PingFangSC-Regular, PingFang SC" font-size="5" font-weight="normal" fill="#2F2F4D">
                            <tspan x="18" y="22">工作</tspan>
                        </text>
                        <text opacity="0.601120722" font-family="PingFangSC-Regular, PingFang SC" font-size="5" font-weight="normal" fill="#2F2F4D">
                            <tspan x="0" y="30">电源</tspan>
                        </text>
                    </g>
                    <g id="身份证" transform="translate(49.000000, 114.000000)">
                        <rect id="矩形" stroke="#7578A0" x="0" y="0" width="31" height="19" rx="2"></rect>
                        <path d="M23.4484019,13.5 L17.5515981,13.5 C17.2469589,13.5 17,13.2761424 17,13 C17,12.7238576 17.2469589,12.5 17.5515981,12.5 L23.4484019,12.5 C23.7530411,12.5 24,12.7238576 24,13 C24,13.2761424 23.7530411,13.5 23.4484019,13.5 Z" id="Path" fill="#7578A0"></path>
                        <path d="M25.2908025,9.5 L17.7091975,9.5 C17.3175185,9.5 17,9.27614237 17,9 C17,8.72385763 17.3175185,8.5 17.7091975,8.5 L25.2908025,8.5 C25.6824815,8.5 26,8.72385763 26,9 C26,9.27614237 25.6824815,9.5 25.2908025,9.5 Z" id="Path备份" fill="#7578A0"></path>
                        <path d="M25.5212766,11.5 L17.4787234,11.5 C17.2143318,11.5 17,11.2761424 17,11 C17,10.7238576 17.2143318,10.5 17.4787234,10.5 L25.5212766,10.5 C25.7856682,10.5 26,10.7238576 26,11 C26,11.2761424 25.7856682,11.5 25.5212766,11.5 Z" id="Path" fill="#7578A0"></path>
                        <path d="M25.5212766,7.5 L17.4787234,7.5 C17.2143318,7.5 17,7.27614237 17,7 C17,6.72385763 17.2143318,6.5 17.4787234,6.5 L25.5212766,6.5 C25.7856682,6.5 26,6.72385763 26,7 C26,7.27614237 25.7856682,7.5 25.5212766,7.5 Z" id="Path备份-2" fill="#7578A0"></path>
                        <path d="M8.999762,5 C7.34628616,5 6,6.34599613 6,8.00023804 C6,9.65348452 7.34530172,11 8.999762,11 C10.6537247,11 12,9.65349534 12,8.00023804 C12,6.34599613 10.6537247,5 8.999762,5 Z" id="路径" fill="#7578A0" fill-rule="nonzero"></path>
                        <path d="M11.061768,11 C10.4918648,11.3969397 9.78215303,11.6428735 9.00021221,11.6428735 C8.21826175,11.6428735 7.50900331,11.3961833 6.93778832,11 C5.85637876,11.6066498 5.10342408,12.6719947 5,13.9058455 C5.37863321,13.9511974 6.05241378,14 7.01394325,14 L10.9847353,14 C11.9467084,14 12.6209134,13.9511974 13,13.9058455 C12.8974248,12.6712128 12.1444797,11.6066498 11.061768,11 Z" id="路径" fill="#7578A0" fill-rule="nonzero"></path>
                    </g>
                </g>
            </g>
        </g>
    </g>
</svg>