<?xml version="1.0" encoding="UTF-8"?>
<svg width="15px" height="14px" viewBox="0 0 15 14" version="1.1" xmlns="http://www.w3.org/2000/svg" xmlns:xlink="http://www.w3.org/1999/xlink">
    <!-- Generator: Sketch 58 (84663) - https://sketch.com -->
    <title>repeat</title>
    <desc>Created with Sketch.</desc>
    <g id="写白卡" stroke="none" stroke-width="1" fill="none" fill-rule="evenodd">
        <g id="写卡-连接失败" transform="translate(-318.000000, -204.000000)" fill="#F6AE39" fill-rule="nonzero">
            <g id="repeat" transform="translate(318.000000, 204.000000)">
                <path d="M0.00413874192,0.650840242 C-0.032420145,0.347634013 0.17771507,0.0720177856 0.479216147,0.0352521385 C0.780717225,-0.00151350863 1.05478346,0.209810134 1.09134235,0.513016362 L1.42024691,3.07642701 C2.66277876,1.22048705 4.76409955,0.0719862542 7.02987262,0.0719862542 C9.9169273,0.0719862542 12.4842015,1.91875056 13.4252322,4.65675074 C13.5257221,4.94157414 13.3704252,5.25395602 13.0872036,5.35501425 C13.0323966,5.37339707 12.9684343,5.38257272 12.9044719,5.38257272 C12.6760572,5.38257272 12.465922,5.23557319 12.3837115,5.01504237 C11.598009,2.71807231 9.44184989,1.17451423 7.02990398,1.17451423 C5.05647658,1.17451423 3.22009798,2.22192526 2.19685675,3.89413158 L4.93770723,3.5817497 C5.23920831,3.54498406 5.51327454,3.76551488 5.54070939,4.0687211 C5.56811287,4.37192733 5.35797766,4.64754356 5.05647658,4.67513356 L1.10962179,5.12533932 C1.09134235,5.12533932 1.06393886,5.12533932 1.04565942,5.12533932 C0.771561826,5.12533932 0.534023124,4.92319132 0.506619636,4.64757509 L0.00413874192,0.650840242 Z M13.5805291,8.02869031 L9.63367431,8.47889606 C9.33217323,8.51566171 9.11291397,8.78210229 9.1494415,9.08530852 C9.18600039,9.38851475 9.45094258,9.60901404 9.75244366,9.57227992 L12.1369861,9.30583934 C11.2050794,11.2812204 9.22252792,12.5583379 7.02071723,12.5583379 C4.54480894,12.5583379 2.31556339,10.8953387 1.60294729,8.51566171 C1.51158142,8.22166266 1.21008034,8.05628031 0.917734666,8.14813136 C0.625388987,8.23998242 0.460936704,8.54322018 0.552271213,8.83721923 C0.963386243,10.2062193 1.82220655,11.4373955 2.95509308,12.3010414 C4.13366255,13.1922772 5.54064668,13.6700415 7.02071723,13.6700415 C9.72504017,13.6700415 12.1461415,12.0529836 13.2150656,9.59980686 L13.5987772,12.6593646 C13.6353361,12.9350123 13.8728748,13.1371288 14.137817,13.1371288 C14.1652205,13.1371288 14.1834999,13.1371288 14.2109034,13.1371288 C14.5124045,13.1003631 14.7225397,12.8247469 14.6859808,12.5215407 L14.1743759,8.52483735 C14.1469724,8.21245548 13.8820302,8.00113184 13.5805291,8.02869031 Z" id="Shape"></path>
            </g>
        </g>
    </g>
</svg>