<?xml version="1.0" encoding="UTF-8"?>
<svg width="34px" height="34px" viewBox="0 0 34 34" version="1.1" xmlns="http://www.w3.org/2000/svg" xmlns:xlink="http://www.w3.org/1999/xlink">
    <!-- Generator: Sketch 58 (84663) - https://sketch.com -->
    <title>Shape</title>
    <desc>Created with Sketch.</desc>
    <g id="写白卡" stroke="none" stroke-width="1" fill="none" fill-rule="evenodd" opacity="0.800000012">
        <g id="激活-成功" transform="translate(-137.000000, -204.000000)" fill="#33C608" fill-rule="nonzero">
            <g id="1" transform="translate(18.000000, 182.000000)">
                <g id="check-badge" transform="translate(119.000000, 22.000000)">
                    <path d="M32.846963,14.5574715 L30.129665,12.3692118 C29.7002932,12.0226135 29.4772954,11.4804971 29.5383052,10.9315933 L29.915297,7.45969273 C30.018281,6.52585814 29.6922472,5.5957146 29.0290224,4.93123502 C28.3657976,4.26675545 27.4371494,3.9398433 26.5046297,4.04257269 L23.0333479,4.41567245 C22.485283,4.47648799 21.9440868,4.25321912 21.5978221,3.8234506 L19.4127478,1.10367178 C18.8070238,0.40275975 17.9270863,0 17.0014784,0 C16.0758705,0 15.195933,0.40275975 14.590209,1.10367178 L12.4051347,3.8234506 C12.0600757,4.25483337 11.5179533,4.47848431 10.9696089,4.41567245 L7.50276234,4.04257269 C6.57028712,3.9394386 5.64149758,4.26594768 4.97798528,4.93013935 C4.31447298,5.59433102 3.98803672,6.52433298 4.09061656,7.45821218 L4.4676084,10.9301127 C4.53004205,11.4792165 4.30677172,12.0219953 3.87624865,12.3677313 L1.15599378,14.5574715 C0.425154702,15.1453634 0,16.0334798 0,16.9722561 C0,17.9110325 0.425154702,18.7991488 1.15599378,19.3870407 L3.87329185,21.5753004 C4.30358367,21.9212097 4.52679914,22.4638552 4.4646516,23.0129189 L4.08765976,26.4848195 C3.9846758,27.4186541 4.31070959,28.3487976 4.9739344,29.0132772 C5.63715922,29.6777568 6.56580738,30.0046689 7.49832714,29.9019395 L10.9666521,29.5243981 C11.5147569,29.4632994 12.0560841,29.6866223 12.4021779,30.11662 L14.590209,32.842321 C15.1772451,33.5742255 16.0640686,34 17.0014784,34 C17.9388882,34 18.8257117,33.5742255 19.4127478,32.842321 L21.5978221,30.1210616 C21.9440868,29.6912931 22.485283,29.4680242 23.0333479,29.5288398 L26.5001945,29.9063812 C27.4326697,30.0095153 28.3614592,29.6830062 29.0249715,29.0188145 C29.6884838,28.3546229 30.0149201,27.4246209 29.9123402,26.4907417 L29.5353484,23.0173606 C29.472628,22.4682168 29.6959533,21.9253041 30.1267082,21.5797421 L32.8440062,19.3914824 C33.5748453,18.8035905 34,17.9154741 34,16.9766978 C34,16.0379214 33.5748453,15.1498051 32.8440062,14.5619132 L32.846963,14.5574715 Z M17.5928382,21.5131171 C17.1334409,22.1123453 16.4399321,22.4860338 15.6874738,22.5397985 C14.9350156,22.5935633 14.195555,22.3222635 13.6558606,21.7944225 L10.0426525,18.1848303 C9.65833283,17.8131009 9.50420081,17.2626256 9.63949718,16.7449801 C9.77479355,16.2273347 10.1784631,15.8230767 10.695355,15.6875831 C11.2122469,15.5520895 11.7619209,15.7064462 12.1331092,16.0913261 L15.4609862,19.4240546 L21.2400494,11.7088845 C21.5569582,11.2857235 22.075219,11.0640219 22.5996081,11.1272925 C23.1239971,11.1905632 23.5748472,11.5291937 23.7823276,12.0156253 C23.9898079,12.5020569 23.9223972,13.062389 23.6054885,13.48555 L17.5928382,21.5131171 Z" id="Shape"></path>
                </g>
            </g>
        </g>
    </g>
</svg>