<?xml version="1.0" encoding="UTF-8"?>
<svg width="10px" height="10px" viewBox="0 0 10 10" version="1.1" xmlns="http://www.w3.org/2000/svg" xmlns:xlink="http://www.w3.org/1999/xlink">
    <!-- Generator: Sketch 58 (84663) - https://sketch.com -->
    <title>警告的副本</title>
    <desc>Created with Sketch.</desc>
    <g id="写白卡" stroke="none" stroke-width="1" fill="none" fill-rule="evenodd">
        <g id="写卡-连接失败" transform="translate(-234.000000, -206.000000)" fill="#E75353" fill-rule="nonzero">
            <g id="警告的副本" transform="translate(234.000000, 206.000000)">
                <path d="M5,0 C2.23853909,0 0,2.23859506 0,5 C0,7.76140494 2.23859506,10 5,10 C7.76140494,10 10,7.76140494 10,5 C10,2.23859506 7.7614609,0 5,0 L5,0 Z M4.5831596,2.499993 C4.5831596,2.26990741 4.76953663,2.0833205 4.9998321,2.0833205 C5.23014155,2.0833205 5.41646262,2.26990739 5.41646262,2.499993 L5.41646262,5.4628575 C5.41646262,5.69294309 5.23014155,5.87953 4.9998321,5.87953 C4.76953663,5.87953 4.5831596,5.69294311 4.5831596,5.4628575 L4.5831596,2.499993 L4.5831596,2.499993 Z M5,7.499993 C4.67645306,7.499993 4.41417366,7.23776957 4.41417366,6.91422262 C4.41417366,6.59067568 4.67645306,6.32839629 5,6.32839629 C5.32354694,6.32839629 5.58582634,6.59067568 5.58582634,6.91422262 C5.58582634,7.23771361 5.32354694,7.499993 5,7.499993 L5,7.499993 Z" id="形状"></path>
            </g>
        </g>
    </g>
</svg>