<?xml version="1.0" encoding="UTF-8"?>
<svg width="152px" height="152px" viewBox="0 0 152 152" version="1.1" xmlns="http://www.w3.org/2000/svg" xmlns:xlink="http://www.w3.org/1999/xlink">
    <!-- Generator: Sketch 58 (84663) - https://sketch.com -->
    <title>编组 2</title>
    <desc>Created with Sketch.</desc>
    <g id="写白卡" stroke="none" stroke-width="1" fill="none" fill-rule="evenodd">
        <g id="激活-默认" transform="translate(-111.000000, -210.000000)">
            <g id="编组-2" transform="translate(112.000000, 211.000000)">
                <g id="Progress">
                    <circle id="Oval-2" stroke="#FFFFFF" fill="#F6F7FB" cx="75.5" cy="74.5" r="71.5"></circle>
                    <path d="M75,0 C116.421418,0 150,33.4265636 150,74.6604573 C150,95.0475362 141.79066,113.526957 128.484792,127" id="Page-1" stroke="#9BA6E7" stroke-width="2" stroke-linecap="round"></path>
                    <circle id="Oval-4" stroke="#9BA6E7" stroke-width="2" opacity="0.200000003" cx="75" cy="75" r="75"></circle>
                </g>
                <g id="sim_card" transform="translate(37.000000, 23.000000)" fill-rule="nonzero">
                    <path d="M68.25,102 L9.74999997,102 C4.3875,102 0,97.6285714 0,92.2857143 L0,9.71428568 C0,4.37142857 4.3875,0 9.74999997,0 L49.48125,0 C52.1625,0 54.6,0.971428533 56.3062501,2.91428571 L75.075,21.6142858 C77.025,23.5571429 78,25.9857143 78,28.4142857 L78,92.2857143 C78,97.6285714 73.6125,102 68.25,102 Z" id="路径" fill="#9BA6E7"></path>
                    <path d="M59.1000001,82 L19.8999999,82 C17.2049999,82 15,79.80625 15,77.125 L15,47.875 C15,45.19375 17.205,43 19.8999999,43 L59.1000001,43 C61.7950001,43 64,45.19375 64,47.875 L64,77.125 C64,79.80625 61.795,82 59.1000001,82 Z" id="路径" fill="#FFBA48"></path>
                    <path d="M51.7500001,62.5 L51.7500001,69.8125 L64,69.8125 L64,74.6875 L51.7500001,74.6875 L51.7500001,82 L46.85,82 L46.85,43 L51.7500001,43 L51.7500001,57.625 L64,57.625 L64,62.5 L51.7500001,62.5 Z M15,60.0625 L15,64.9375 L27.2499999,64.9375 L27.2499999,69.8125 L15,69.8125 L15,74.6875 L27.2499999,74.6875 L27.2499999,82 L32.15,82 L32.15,60.0625 L15,60.0625 L15,60.0625 Z" id="形状" fill-opacity="0.63947771" fill="#FFE161"></path>
                </g>
            </g>
        </g>
    </g>
</svg>