<?xml version="1.0" encoding="UTF-8"?>
<svg width="12px" height="12px" viewBox="0 0 12 12" version="1.1" xmlns="http://www.w3.org/2000/svg" xmlns:xlink="http://www.w3.org/1999/xlink">
    <!-- Generator: Sketch 58 (84663) - https://sketch.com -->
    <title>形状</title>
    <desc>Created with Sketch.</desc>
    <g id="写白卡" stroke="none" stroke-width="1" fill="none" fill-rule="evenodd">
        <g id="查询结果-操作记录" transform="translate(-54.000000, -771.000000)" fill="#F5A623" fill-rule="nonzero">
            <g id="编组-2" transform="translate(18.000000, 377.000000)">
                <g id="编组" transform="translate(36.000000, 71.000000)">
                    <path d="M6,323 C2.6862469,323 0,325.686314 0,329 C0,332.313686 2.68631407,335 6,335 C9.31368593,335 12,332.313686 12,329 C12,325.686314 9.31375308,323 6,323 L6,323 Z M5.49979152,325.999985 C5.49979152,325.723889 5.72344396,325.499985 5.99979152,325.499985 C6.27616987,325.499985 6.49975515,325.723889 6.49975515,325.999985 L6.49975515,329.555429 C6.49975515,329.831532 6.27616987,330.055436 5.99979152,330.055436 C5.72344396,330.055436 5.49979152,329.831532 5.49979152,329.555429 L5.49979152,325.999985 L5.49979152,325.999985 Z M6,331.999992 C5.61174367,331.999992 5.29700839,331.685323 5.29700839,331.297067 C5.29700839,330.908811 5.61174367,330.594076 6,330.594076 C6.38825633,330.594076 6.70299161,330.908811 6.70299161,331.297067 C6.70299161,331.685256 6.38825633,331.999992 6,331.999992 L6,331.999992 Z" id="形状"></path>
                </g>
            </g>
        </g>
    </g>
</svg>