<?xml version="1.0" encoding="UTF-8"?>
<svg width="230px" height="184px" viewBox="0 0 230 184" version="1.1" xmlns="http://www.w3.org/2000/svg" xmlns:xlink="http://www.w3.org/1999/xlink">
    <!-- Generator: Sketch 58 (84663) - https://sketch.com -->
    <title>图形</title>
    <desc>Created with Sketch.</desc>
    <g id="写白卡" stroke="none" stroke-width="1" fill="none" fill-rule="evenodd">
        <g id="报错页面" transform="translate(-76.000000, -207.000000)">
            <g id="图形" transform="translate(58.000000, 197.000000)">
                <g id="底" transform="translate(127.164958, 99.633630) scale(-1, -1) rotate(14.000000) translate(-127.164958, -99.633630) translate(15.664958, 25.133630)" fill="#FFFFFF" opacity="0.7">
                    <path d="M0.172526273,25.0037495 C0.172526273,11.3074948 11.2720787,0.204486665 24.9667849,0.204486665 L170.755836,0.204486665 C184.449327,0.204486665 195.550094,11.3044834 195.550094,25.0037495 L195.550094,25.0037495 C195.550094,38.7000041 184.450542,49.8030122 170.755836,49.8030122 L24.9667849,49.8030122 C11.273294,49.8030122 0.172526273,38.7030155 0.172526273,25.0037495 L0.172526273,25.0037495 Z" id="Rectangle-13"></path>
                    <path d="M16.7611877,74.3977884 C16.7611877,60.7015337 27.8652028,49.5985256 41.5511087,49.5985256 L197.48635,49.5985256 C211.177446,49.5985256 222.276271,60.6985223 222.276271,74.3977884 L222.276271,74.3977884 C222.276271,88.094043 211.172256,99.1970512 197.48635,99.1970512 L41.5511087,99.1970512 C27.8600134,99.1970512 16.7611877,88.0970544 16.7611877,74.3977884 L16.7611877,74.3977884 Z" id="Rectangle-13"></path>
                    <path d="M0.172526273,123.996314 C0.172526273,110.300059 11.2765414,99.1970512 24.9624472,99.1970512 L180.897689,99.1970512 C194.588784,99.1970512 205.68761,110.297048 205.68761,123.996314 L205.68761,123.996314 C205.68761,137.692569 194.583595,148.795577 180.897689,148.795577 L24.9624472,148.795577 C11.2713519,148.795577 0.172526273,137.69558 0.172526273,123.996314 L0.172526273,123.996314 Z" id="Rectangle-13"></path>
                </g>
                <path d="M173.003721,80.3346919 C173.003721,80.3346919 181.974834,70.9501245 180.183884,66.8113633 C178.392934,62.6726021 159.414837,62.6255224 159.414837,62.6255224" id="Path-5" stroke="#7578A0" stroke-width="2" stroke-linecap="round" stroke-linejoin="round" transform="translate(169.917580, 71.480107) rotate(76.000000) translate(-169.917580, -71.480107) "></path>
                <path d="M119.476303,159.661168 C117.717924,159.511997 114.814212,159.22943 114.705736,159.218638 C107.659454,158.517655 103.497903,157.614862 103.497903,157.614862 C100.461495,157.060506 98,154.128714 98,151.069631 L98,48.0599986 C98,44.9995237 100.426262,41.9044285 103.438889,41.2176379 C103.438889,41.2176379 114.360169,38 130.720339,38 C134.966126,38 138.845601,38.2167095 142.262939,38.5376478 M150.225118,39.5603709 C155.176963,40.3755162 158.02477,41.2026253 158.02477,41.2026253 C161.015893,41.9293731 163.440678,45.0009154 163.440678,48.0599986 C163.440678,48.0599986 163.440679,88.9521153 163.440679,105.948751 M163.440678,117.493065 L163.440678,122.724808 M163.440678,131.224878 L163.440678,151.069631 C163.440678,154.130106 160.984907,157.076988 157.938729,157.597009 C157.938729,157.597009 147.080508,160 130.720339,160 C129.875928,160 129.046174,159.993598 128.231814,159.981456" id="Rectangle-9" stroke="#7578A0" fill-opacity="0.115985577" fill="#D5DBFA" stroke-linecap="round" stroke-linejoin="round"></path>
                <path d="M104,64.5730217 L104,53.2261097 C104,51.9966633 104.980895,51 106.184639,51 L153.815361,51 C155.021904,51 156,51.995349 156,53.2247314 L156,138.775269 C156,140.003954 155.019105,141 153.815361,141 L106.184639,141 C104.978096,141 104,140.008053 104,138.776535 L104,73.5956535 L104,73.5956535" id="Rectangle-9" stroke="#7578A0" fill="#FFFFFF" stroke-linecap="round" stroke-linejoin="round"></path>
                <circle id="Oval-3" fill="#F5A623" cx="115.5" cy="101.5" r="2.5"></circle>
                <rect id="Rectangle-11" fill="#F5A623" x="122" y="100" width="26" height="2" rx="1"></rect>
                <circle id="Oval-3" fill="#F5A623" cx="115.5" cy="113.5" r="2.5"></circle>
                <rect id="Rectangle-11" fill="#F5A623" x="122" y="113" width="26" height="2" rx="1"></rect>
                <circle id="Oval-3" fill="#F5A623" cx="115.5" cy="125.5" r="2.5"></circle>
                <rect id="Rectangle-11" fill="#F5A623" x="122" y="124" width="26" height="2" rx="1"></rect>
                <path d="M119.068917,70.4960882 C119.068917,70.4960882 119.297839,68.1768854 121.160927,67.788684 C123.024016,67.4004826 124.051453,69.6550628 124.051453,69.6550628" id="Path-8" stroke="#7578A0" stroke-width="2" stroke-linecap="round" stroke-linejoin="round" transform="translate(121.560185, 69.113874) scale(1, -1) rotate(7.000000) translate(-121.560185, -69.113874) "></path>
                <path d="M136.230843,70.4960882 C136.230843,70.4960882 136.459765,68.1768854 138.322853,67.788684 C140.185942,67.4004826 141.213379,69.6550628 141.213379,69.6550628" id="Path-8" stroke="#7578A0" stroke-width="2" stroke-linecap="round" stroke-linejoin="round" transform="translate(138.722111, 69.113874) scale(1, -1) rotate(7.000000) translate(-138.722111, -69.113874) "></path>
                <path d="M122,46.4237842 C122,45.8705727 122.444631,45.3785233 123.000872,45.3284272 C123.000872,45.3284272 126,45 130,45 C134,45 136.999128,45.3284272 136.999128,45.3284272 C137.551894,45.3801647 138,45.86572 138,46.4237842 L138,46.1088533 C138,46.6620648 137.555369,47.0669483 136.999128,47.0168522 C136.999128,47.0168522 134,46.688425 130,46.688425 C126,46.688425 123.000872,47.0168522 123.000872,47.0168522 C122.448106,47.0685897 122,46.6669174 122,46.1088533 L122,46.4237842 Z" id="Rectangle-10" fill="#D5DBFA"></path>
                <path d="M105.95921,96.9325299 C105.95921,96.9325299 114.942237,87.6133291 113.150822,83.505269 C111.359408,79.3972088 84.3401936,80.5780061 84.3401936,80.5780061" id="Path-5" stroke="#7578A0" stroke-width="2" stroke-linecap="round" stroke-linejoin="round" transform="translate(98.863647, 88.623455) rotate(-148.000000) translate(-98.863647, -88.623455) "></path>
                <circle id="Oval" fill="#D5DBFA" cx="130" cy="151" r="5"></circle>
                <path d="M127.139824,83.2857191 C126.400919,84.985404 128.694771,86.2949965 131.566453,85.9422362 C134.438135,85.589476 136.566649,82.7604038 135.865396,81.4962186 C135.164144,80.2320335 127.878729,81.5860342 127.139824,83.2857191 Z" id="Path-10" fill="#7578A0" transform="translate(131.500000, 83.500000) scale(1, -1) translate(-131.500000, -83.500000) "></path>
                <circle id="Oval-11" fill="#9BA6E7" opacity="0.400000006" cx="214.5" cy="36.5" r="3.5"></circle>
                <circle id="Oval-11" fill="#9BA6E7" opacity="0.6" cx="204" cy="48" r="2"></circle>
                <circle id="Oval-11" fill="#9BA6E7" opacity="0.659165112" cx="221" cy="59" r="3"></circle>
                <circle id="Oval-11" fill="#9BA6E7" opacity="0.5" cx="68" cy="115" r="3"></circle>
                <circle id="Oval-11" fill="#9BA6E7" opacity="0.35389459" cx="59" cy="131" r="2"></circle>
                <circle id="Oval-11" fill="#9BA6E7" opacity="0.667910448" cx="59" cy="98" r="2"></circle>
                <path d="M68,25.1357925 L76.8825144,25.1357925" id="Line" stroke="#9BA6E7" stroke-width="2" opacity="0.503859747" stroke-linecap="round"></path>
                <path d="M68,25.1357925 L76.8825144,25.1357925" id="Line" stroke="#9BA6E7" stroke-width="2" opacity="0.503859747" stroke-linecap="round" transform="translate(72.441257, 25.135793) rotate(90.000000) translate(-72.441257, -25.135793) "></path>
                <path d="M193,170.18724 L202.497918,170.18724" id="Line" stroke="#9BA6E7" stroke-width="2" stroke-linecap="round"></path>
                <path d="M193,170.18724 L202.497918,170.18724" id="Line" stroke="#9BA6E7" stroke-width="2" stroke-linecap="round" transform="translate(197.748959, 170.187240) rotate(90.000000) translate(-197.748959, -170.187240) "></path>
                <path d="M234,113.830117 L240.721793,113.830117" id="Line" stroke="#9BA6E7" stroke-width="2" opacity="0.700009301" stroke-linecap="round"></path>
                <path d="M234,113.830117 L240.721793,113.830117" id="Line" stroke="#9BA6E7" stroke-width="2" opacity="0.700009301" stroke-linecap="round" transform="translate(237.360896, 113.830117) rotate(90.000000) translate(-237.360896, -113.830117) "></path>
            </g>
        </g>
    </g>
</svg>